<mxfile host="app.diagrams.net" modified="2023-04-11T02:47:24.514Z" agent="Mozilla/5.0 (Windows NT 10.0; Win64; x64) AppleWebKit/537.36 (KHTML, like Gecko) Chrome/112.0.0.0 Safari/537.36 Edg/112.0.1722.34" version="21.1.5" etag="uoQkAKgBpA2QuwfOar0_" type="github">
  <diagram name="第 1 页" id="p--lEpqIQfKtLBfNM9G8">
    <mxGraphModel>
      <root>
        <mxCell id="0" />
        <mxCell id="1" parent="0" />
      </root>
    </mxGraphModel>
  </diagram>
</mxfile>
